#!OML:ASF E:\motion texture\Top Level 1\Subject 1\Session 1\male.ASF
:FULLY-SPECIFIED
:DEGREES
278
root 1.19773 17.79 4.19842 33.0569 -72.4736 -26.6808
lowerback 5.71604 3.07572 5.3466
upperback 3.36203 4.21502 4.18487
thorax 0.348839 2.08151 1.10448
lowerneck -18.1088 -4.81186 -6.54848
upperneck 6.44097 -5.91491 8.46045
head 5.31885 -2.48877 3.14499
rclavicle -4.83047e-014 -1.82882e-014
rhumerus 2.46958 35.1422 -77.025
rradius 74.5186
rwrist -29.9568
rhand 12.1516 -45.0917
rfingers 7.12502
rthumb 37.1641 -71.1136
lclavicle -4.83047e-014 -1.82882e-014
lhumerus -29.9237 -21.5372 99.8706
lradius 57.3184
lwrist -4.57169
lhand -6.93475 25.1409
lfingers 7.12502
lthumb 18.9336 54.2394
rfemur -26.0102 -4.19071 28.5286
rtibia 25.7404
rfoot -4.44804 -12.9033
rtoes 16.5599
lfemur -24.8625 -7.90013 -3.78407
ltibia 54.4663
lfoot -7.18623 -3.0724
ltoes -21.4126
279
root 1.0375 17.8075 4.16319 33.0552 -71.9378 -26.7894
lowerback 5.62928 3.35928 5.59169
upperback 3.32331 4.59965 4.16323
thorax 0.386811 2.27764 0.934599
lowerneck -18.0602 -5.1061 -6.77553
upperneck 6.4533 -6.28838 8.69727
head 5.35979 -2.66091 3.21693
rclavicle 8.0309e-014 -3.81667e-014
rhumerus 3.72676 35.8648 -75.3289
rradius 74.6014
rwrist -30.7106
rhand 13.2562 -44.3789
rfingers 7.12502
rthumb 38.2078 -70.1213
lclavicle 8.0309e-014 -3.81667e-014
lhumerus -29.6412 -20.174 98.9311
lradius 56.2076
lwrist -5.74368
lhand -7.1271 25.088
lfingers 7.12502
lthumb 18.7486 54.2045
rfemur -25.2867 -4.31405 29.0616
rtibia 25.613
rfoot -4.87339 -13.0425
rtoes 16.7896
lfemur -25.6158 -8.10896 -3.35532
ltibia 54.3975
lfoot -7.12258 -2.93602
ltoes -21.2407
280
root 0.878221 17.8243 4.12946 33.0551 -71.4179 -26.893
lowerback 5.54005 3.64389 5.83211
upperback 3.2808 4.98523 4.13722
thorax 0.425824 2.47422 0.764684
lowerneck -18.0126 -5.40005 -7.00695
upperneck 6.46577 -6.66166 8.93859
head 5.40302 -2.83271 3.29048
rclavicle -4.51241e-014 1.35174e-014
rhumerus 5.03303 36.4694 -73.55
rradius 74.7265
rwrist -31.4643
rhand 14.2384 -43.6513
rfingers 7.12502
rthumb 39.1343 -69.1327
lclavicle -4.51241e-014 1.35174e-014
lhumerus -29.3394 -18.729 97.9702
lradius 55.1058
lwrist -6.89177
lhand -7.34681 25.0458
lfingers 7.12502
lthumb 18.5372 54.1825
rfemur -24.5622 -4.4291 29.5848
rtibia 25.4589
rfoot -5.29663 -13.1784
rtoes 16.9814
lfemur -26.3602 -8.30458 -2.95665
ltibia 54.2239
lfoot -7.09966 -2.76993
ltoes -21.0721
281
root 0.719752 17.8405 4.09727 33.0604 -70.915 -26.9977
lowerback 5.44817 3.92826 6.06804
upperback 3.23524 5.36997 4.10718
thorax 0.466644 2.67034 0.595184
lowerneck -17.9675 -5.69097 -7.24035
upperneck 6.48096 -7.03169 9.18397
head 5.44931 -3.00255 3.3654
rclavicle -1.11319e-014 4.53229e-014
rhumerus 6.38246 36.9375 -71.708
rradius 74.878
rwrist -32.2111
rhand 15.1018 -42.9347
rfingers 7.12502
rthumb 39.9474 -68.1766
lclavicle -1.11319e-014 4.53229e-014
lhumerus -29.028 -17.2 96.9904
lradius 54.025
lwrist -8.01245
lhand -7.59151 25.0221
lfingers 7.12502
lthumb 18.3019 54.1811
rfemur -23.8339 -4.53307 30.0986
rtibia 25.2772
rfoot -5.71436 -13.3142
rtoes 17.1344
lfemur -27.086 -8.4858 -2.58693
ltibia 53.9398
lfoot -7.11389 -2.57855
ltoes -20.9018
282
root 0.562115 17.856 4.06664 33.0753 -70.4302 -27.1044
lowerback 5.35276 4.21168 6.29878
upperback 3.18424 5.75303 4.07318
thorax 0.507143 2.86553 0.426614
lowerneck -17.9122 -5.97833 -7.46988
upperneck 6.48887 -7.39833 9.42623
head 5.49295 -3.1712 3.4387
rclavicle 1.2265e-013 3.33958e-014
rhumerus 7.76492 37.2535 -69.8255
rradius 75.0369
rwrist -32.9437
rhand 15.8556 -42.2501
rfingers 7.12502
rthumb 40.6564 -67.2747
lclavicle 1.2265e-013 3.33958e-014
lhumerus -28.7162 -15.5881 95.9938
lradius 52.9752
lwrist -9.10604
lhand -7.85904 25.0128
lfingers 7.12502
lthumb 18.0445 54.1958
rfemur -23.1075 -4.62649 30.6039
rtibia 25.0717
rfoot -6.12154 -13.4519
rtoes 17.2345
lfemur -27.7927 -8.65053 -2.24546
ltibia 53.5437
lfoot -7.16356 -2.36591
ltoes -20.7384
283
root 0.405306 17.8707 4.03762 33.0976 -69.9629 -27.2109
lowerback 5.25366 4.49317 6.52428
upperback 3.12834 6.13304 4.03548
thorax 0.547789 3.05909 0.259392
lowerneck -17.854 -6.26154 -7.69819
upperneck 6.49582 -7.76043 9.66751
head 5.53714 -3.33774 3.5115
rclavicle 4.07509e-014 1.03368e-014
rhumerus 9.17224 37.4022 -67.9246
rradius 75.1829
rwrist -33.6594
rhand 16.507 -41.6157
rfingers 7.12502
rthumb 41.2682 -66.4462
lclavicle 4.07509e-014 1.03368e-014
lhumerus -28.4135 -13.9031 94.9867
lradius 51.9723
lwrist -10.16
lhand -8.15475 25.0422
lfingers 7.12502
lthumb 17.7599 54.2512
rfemur -22.3844 -4.71116 31.0992
rtibia 24.8456
rfoot -6.52557 -13.5928
rtoes 17.3124
lfemur -28.4768 -8.80121 -1.93267
ltibia 53.0351
lfoot -7.24496 -2.13623
ltoes -20.5807
284
root 0.249222 17.8846 4.01028 33.1256 -69.5156 -27.3159
lowerback 5.15005 4.77267 6.74147
upperback 3.06765 6.50972 3.99464
thorax 0.588613 3.25083 0.0958749
lowerneck -17.7909 -6.54158 -7.92362
upperneck 6.50042 -8.11935 9.90478
head 5.58097 -3.50308 3.58244
rclavicle 3.97569e-014 2.54444e-014
rhumerus 10.5962 37.3759 -66.026
rradius 75.2927
rwrist -34.3592
rhand 17.0453 -41.0397
rfingers 7.12502
rthumb 41.7733 -65.7053
lclavicle 3.97569e-014 2.54444e-014
lhumerus -28.1276 -12.1476 93.9707
lradius 51.0227
lwrist -11.1772
lhand -8.47693 25.0764
lfingers 7.12502
lthumb 17.4499 54.3132
rfemur -21.6642 -4.78836 31.5831
rtibia 24.6006
rfoot -6.92182 -13.7302
rtoes 17.3534
lfemur -29.1323 -8.93691 -1.65004
ltibia 52.4134
lfoot -7.35379 -1.89595
ltoes -20.4217
285
root 0.0939317 17.8976 3.98466 33.1674 -69.0905 -27.4253
lowerback 5.0435 5.0491 6.95293
upperback 3.00147 6.88193 3.94994
thorax 0.628206 3.44016 -0.0662036
lowerneck -17.7277 -6.81328 -8.14723
upperneck 6.50634 -8.46797 10.1391
head 5.62573 -3.66353 3.6528
rclavicle -3.37934e-015 -4.85035e-014
rhumerus 12.03 37.1753 -64.1517
rradius 75.348
rwrist -35.0487
rhand 17.5051 -40.5434
rfingers 7.12502
rthumb 42.2042 -65.0647
lclavicle -3.37934e-015 -4.85035e-014
lhumerus -27.8666 -10.3266 92.9458
lradius 50.1378
lwrist -12.1565
lhand -8.81641 25.1159
lfingers 7.12502
lthumb 17.1232 54.3813
rfemur -20.9535 -4.85751 32.0565
rtibia 24.3453
rfoot -7.31306 -13.8591
rtoes 17.3565
lfemur -29.7585 -9.05455 -1.39619
ltibia 51.6804
lfoot -7.48534 -1.64962
ltoes -20.2689
286
root -0.0606605 17.9097 3.96075 33.2253 -68.689 -27.5429
lowerback 4.93398 5.32154 7.15644
upperback 2.93003 7.24835 3.903
thorax 0.66612 3.62634 -0.223968
lowerneck -17.6607 -7.07572 -8.35458
upperneck 6.50956 -8.80641 10.3559
head 5.66806 -3.81996 3.71571
rclavicle -3.16068e-014 -8.74653e-015
rhumerus 13.4674 36.8069 -62.3184
rradius 75.3305
rwrist -35.7369
rhand 17.8535 -40.1509
rfingers 7.12502
rthumb 42.5304 -64.5607
lclavicle -3.16068e-014 -8.74653e-015
lhumerus -27.6392 -8.44686 91.9135
lradius 49.3255
lwrist -13.0975
lhand -9.16516 25.1545
lfingers 7.12502
lthumb 16.7874 54.4487
rfemur -20.2505 -4.91653 32.52
rtibia 24.0799
rfoot -7.69864 -13.9799
rtoes 17.3265
lfemur -30.3507 -9.1524 -1.16947
ltibia 50.8394
lfoot -7.63499 -1.40276
ltoes -20.1186
287
root -0.214481 17.9209 3.93871 33.2964 -68.3135 -27.6618
lowerback 4.81902 5.5918 7.35128
upperback 2.8532 7.61114 3.85272
thorax 0.703574 3.8105 -0.377978
lowerneck -17.5959 -7.33279 -8.57423
upperneck 6.51685 -9.13662 10.5799
head 5.71368 -3.97205 3.78329
rclavicle -4.37326e-015 -3.10104e-014
rhumerus 14.8931 36.2646 -60.5495
rradius 75.224
rwrist -36.4136
rhand 18.1113 -39.8848
rfingers 7.12502
rthumb 42.7717 -64.2109
lclavicle -4.37326e-015 -3.10104e-014
lhumerus -27.453 -6.53132 90.8794
lradius 48.5962
lwrist -13.9991
lhand -9.51785 25.1935
lfingers 7.12502
lthumb 16.4479 54.5162
rfemur -19.562 -4.97027 32.9692
rtibia 23.8112
rfoot -8.07927 -14.089
rtoes 17.2574
lfemur -30.9111 -9.23129 -0.973575
ltibia 49.8957
lfoot -7.79683 -1.1599
ltoes -19.9796
288
root -0.367652 17.9311 3.91845 33.3792 -67.9641 -27.783
lowerback 4.70032 5.8579 7.53506
upperback 2.77162 7.96769 3.8004
thorax 0.739419 3.99124 -0.525772
lowerneck -17.5312 -7.58131 -8.79103
upperneck 6.52563 -9.45585 10.7969
head 5.75968 -4.11917 3.84893
rclavicle 6.36111e-014 6.67916e-014
rhumerus 16.3058 35.5653 -58.8547
rradius 75.0149
rwrist -37.086
rhand 18.2606 -39.753
rfingers 7.12502
rthumb 42.9114 -64.0302
lclavicle 6.36111e-014 6.67916e-014
lhumerus -27.3126 -4.5871 89.8427
lradius 47.9517
lwrist -14.8581
lhand -9.86741 25.2243
lfingers 7.12502
lthumb 16.1113 54.5746
rfemur -18.8842 -5.01676 33.4042
rtibia 23.5392
rfoot -8.4538 -14.1885
rtoes 17.1517
lfemur -31.4356 -9.2911 -0.806909
ltibia 48.8555
lfoot -7.96303 -0.925521
ltoes -19.8519
289
root -0.520109 17.9403 3.90004 33.4855 -67.6454 -27.916
lowerback 4.57776 6.12193 7.7104
upperback 2.68361 8.32106 3.74432
thorax 0.77257 4.17007 -0.670681
lowerneck -17.4653 -7.82097 -9.00067
upperneck 6.53524 -9.76445 11.0044
head 5.8052 -4.26158 3.91128
rclavicle -5.58585e-014 -1.90833e-014
rhumerus 17.6969 34.7167 -57.25
rradius 74.6874
rwrist -37.7353
rhand 18.3265 -39.7501
rfingers 7.12502
rthumb 42.973 -64.0056
lclavicle -5.58585e-014 -1.90833e-014
lhumerus -27.2261 -2.63593 88.8037
lradius 47.3986
lwrist -15.6682
lhand -10.2088 25.2471
lfingers 7.12502
lthumb 15.7826 54.6237
rfemur -18.2228 -5.05277 33.8259
rtibia 23.2702
rfoot -8.8225 -14.2711
rtoes 17.0125
lfemur -31.9258 -9.32667 -0.667312
ltibia 47.7278
lfoot -8.12504 -0.70095
ltoes -19.7402
290
root -0.672052 17.9484 3.88349 33.6 -67.3514 -28.048
lowerback 4.45115 6.38111 7.87443
upperback 2.59106 8.66722 3.68667
thorax 0.803888 4.34498 -0.808812
lowerneck -17.3997 -8.05193 -9.20517
upperneck 6.54637 -10.062 11.2028
head 5.85063 -4.39909 3.97072
rclavicle -2.72335e-014 2.46493e-014
rhumerus 19.0626 33.7284 -55.7453
rradius 74.2288
rwrist -38.3479
rhand 18.3111 -39.8773
rfingers 7.12502
rthumb 42.9587 -64.1378
lclavicle -2.72335e-014 2.46493e-014
lhumerus -27.195 -0.692127 87.7672
lradius 46.9372
lwrist -16.4214
lhand -10.5391 25.2689
lfingers 7.12502
lthumb 15.4644 54.6703
rfemur -17.5725 -5.08339 34.2314
rtibia 23.0017
rfoot -9.18445 -14.34
rtoes 16.847
lfemur -32.3806 -9.34618 -0.555373
ltibia 46.5198
lfoot -8.27476 -0.492569
ltoes -19.6591
291
root -0.823516 17.9556 3.86881 33.7206 -67.0811 -28.1785
lowerback 4.32406 6.63394 8.0298
upperback 2.49347 9.00475 3.62564
thorax 0.831203 4.51522 -0.943989
lowerneck -17.3348 -8.27312 -9.40133
upperneck 6.55924 -10.3479 11.3924
head 5.89576 -4.53125 4.02706
rclavicle -5.14852e-014 -7.95139e-015
rhumerus 20.4004 32.6141 -54.3511
rradius 73.6324
rwrist -38.9198
rhand 18.2065 -40.1343
rfingers 7.12502
rthumb 42.8608 -64.4292
lclavicle -5.14852e-014 -7.95139e-015
lhumerus -27.2236 1.22616 86.7296
lradius 46.5674
lwrist -17.1095
lhand -10.8537 25.2873
lfingers 7.12502
lthumb 15.1614 54.7119
rfemur -16.9322 -5.11033 34.6204
rtibia 22.736
rfoot -9.5372 -14.3965
rtoes 16.6556
lfemur -32.7988 -9.35152 -0.470075
ltibia 45.2404
lfoot -8.40236 -0.310207
ltoes -19.5857
292
root -0.974481 17.9617 3.85595 33.8484 -66.835 -28.3059
lowerback 4.1932 6.88041 8.17243
upperback 2.39106 9.33314 3.56331
thorax 0.855308 4.6805 -1.07169
lowerneck -17.2709 -8.48439 -9.59226
upperneck 6.57399 -10.6211 11.5733
head 5.94059 -4.65764 4.08095
rclavicle -3.598e-014 -4.01545e-014
rhumerus 21.7115 31.3884 -53.0686
rradius 72.892
rwrist -39.4314
rhand 18.0334 -40.5143
rfingers 7.12502
rthumb 42.6988 -64.8659
lclavicle -3.598e-014 -4.01545e-014
lhumerus -27.3124 3.10706 85.6955
lradius 46.2865
lwrist -17.7263
lhand -11.1524 25.308
lfingers 7.12502
lthumb 14.8737 54.7541
rfemur -16.3066 -5.13399 34.9919
rtibia 22.4764
rfoot -9.87859 -14.4396
rtoes 16.4247
lfemur -33.1848 -9.342 -0.41086
ltibia 43.9015
lfoot -8.49839 -0.161082
ltoes -19.5036
